# xmcd CD database file
#
# Track frame offsets:
#	150
#	28742
#	49402
#
# Disc length: 1006 seconds
#
# Revision: 1
# Processed by: cddbd v1.5.2PL0 Copyright (c) Steve Scherf et al.
# Submitted via: CDex 1.81
#
DISCID=2303ec03
DTITLE=lab. - WHEEL OF FORTUNE
DYEAR=2004
DGENRE=Rock
TTITLE0=WHEEL OF FORTUNE
TTITLE1=AMERICAN DARKNESS
TTITLE2=SKY LOVE #1.5
EXTD=YEAR: 2004
EXTT0=
EXTT1=
EXTT2=
PLAYORDER=
